<svg width="128" height="23" viewBox="0 0 128 23" fill="none" xmlns="http://www.w3.org/2000/svg">
<path d="M1.344 22.528C0.448 22.528 0 22.08 0 21.184V2.176C0 1.28 0.448 0.832001 1.344 0.832001H9.696C11.392 0.832001 12.6933 1.28 13.6 2.176C14.5173 3.072 14.976 4.352 14.976 6.016V6.88C14.976 8.32 14.5227 9.43467 13.616 10.224C15.312 11.1733 16.16 12.9067 16.16 15.424V16.512C16.16 18.4747 15.6373 19.968 14.592 20.992C13.5573 22.016 12.064 22.528 10.112 22.528H1.344ZM2.688 19.84H10.112C11.3173 19.84 12.176 19.584 12.688 19.072C13.2107 18.5493 13.472 17.696 13.472 16.512V15.424C13.472 14.24 13.2213 13.3973 12.72 12.896C12.2187 12.384 11.3493 12.128 10.112 12.128H2.688V19.84ZM2.688 9.44H10.272C11.0507 9.44 11.5787 9.2 11.856 8.72C12.144 8.24 12.288 7.62667 12.288 6.88V6.016C12.288 5.088 12.096 4.44267 11.712 4.08C11.328 3.70667 10.656 3.52 9.696 3.52H2.688V9.44Z" fill="#0F172A"/>
<path d="M26.5233 22.528C24.7313 22.528 23.3979 22.0907 22.5233 21.216C21.6486 20.3413 21.2113 19.008 21.2113 17.216C21.2113 15.424 21.6432 14.0907 22.5072 13.216C23.3819 12.3413 24.7206 11.904 26.5233 11.904H33.2913C33.2273 10.784 32.9339 10.0213 32.4113 9.616C31.8886 9.2 30.9926 8.992 29.7233 8.992H27.8673C26.8006 8.992 26.0059 9.06667 25.4832 9.216C24.9606 9.35467 24.5926 9.61067 24.3792 9.984C24.1873 10.432 23.9899 10.7413 23.7873 10.912C23.5846 11.0827 23.2806 11.168 22.8752 11.168C22.4272 11.168 22.0753 11.0453 21.8193 10.8C21.5632 10.544 21.4886 10.208 21.5952 9.792C21.9152 8.58667 22.5819 7.70667 23.5952 7.152C24.6192 6.58667 26.0433 6.304 27.8673 6.304H29.7233C31.8566 6.304 33.4352 6.816 34.4593 7.84C35.4833 8.864 35.9953 10.4427 35.9953 12.576V21.184C35.9953 22.08 35.5472 22.528 34.6512 22.528C33.7552 22.528 33.3073 22.08 33.3073 21.184V20.464C32.1659 21.84 30.5019 22.528 28.3153 22.528H26.5233ZM26.5233 19.84H28.3153C29.1046 19.84 29.8459 19.7707 30.5392 19.632C31.2326 19.4827 31.8246 19.216 32.3153 18.832C32.8166 18.448 33.1473 17.8987 33.3073 17.184V14.592H26.5233C25.4673 14.592 24.7633 14.768 24.4113 15.12C24.0699 15.472 23.8993 16.1707 23.8993 17.216C23.8993 18.272 24.0699 18.976 24.4113 19.328C24.7633 19.6693 25.4673 19.84 26.5233 19.84Z" fill="#0F172A"/>
<path d="M60.1038 6.304C62.1198 6.304 63.5651 6.77867 64.4398 7.728C65.3251 8.67733 65.7678 10.2507 65.7678 12.448V21.184C65.7678 22.08 65.3197 22.528 64.4238 22.528C63.5278 22.528 63.0798 22.08 63.0798 21.184V12.448C63.0798 11.232 62.8451 10.352 62.3758 9.808C61.9171 9.264 61.1598 8.992 60.1038 8.992H58.7918C57.5758 8.992 56.7064 9.264 56.1838 9.808C55.6611 10.352 55.3997 11.232 55.3997 12.448V21.184C55.3997 22.08 54.9518 22.528 54.0558 22.528C53.1598 22.528 52.7118 22.08 52.7118 21.184V12.448C52.7118 11.232 52.4771 10.352 52.0078 9.808C51.5491 9.264 50.7917 8.992 49.7357 8.992H48.4238C47.2078 8.992 46.3384 9.264 45.8158 9.808C45.2931 10.352 45.0317 11.232 45.0317 12.448V21.184C45.0317 22.08 44.5838 22.528 43.6878 22.528C42.7918 22.528 42.3438 22.08 42.3438 21.184V7.648C42.3438 6.752 42.7918 6.304 43.6878 6.304C44.5838 6.304 45.0317 6.752 45.0317 7.648V8.384C45.5971 7.648 46.2157 7.12 46.8877 6.8C47.5704 6.46933 48.3811 6.304 49.3198 6.304H49.7357C51.0584 6.304 52.0984 6.49067 52.8558 6.864C53.6131 7.22667 54.1891 7.81867 54.5838 8.64C55.1491 7.79733 55.7464 7.2 56.3758 6.848C57.0158 6.48533 57.8211 6.304 58.7918 6.304H60.1038Z" fill="#0F172A"/>
<path d="M73.4378 22.528C72.5417 22.528 72.0938 22.08 72.0938 21.184V1.344C72.0938 0.448 72.5417 0 73.4378 0C74.3338 0 74.7818 0.448 74.7818 1.344V8.016C75.3364 7.45067 76.0297 7.024 76.8617 6.736C77.6937 6.448 78.6644 6.304 79.7738 6.304H80.9898C83.1231 6.304 84.7018 6.816 85.7258 7.84C86.7498 8.864 87.2617 10.4427 87.2617 12.576V16.256C87.2617 18.3787 86.7498 19.9573 85.7258 20.992C84.7018 22.016 83.1231 22.528 80.9898 22.528H79.7738C78.6644 22.528 77.6937 22.384 76.8617 22.096C76.0297 21.808 75.3364 21.3867 74.7818 20.832V21.184C74.7818 22.08 74.3338 22.528 73.4378 22.528ZM79.7738 19.84H80.9898C82.3871 19.84 83.3311 19.5893 83.8217 19.088C84.3231 18.576 84.5738 17.632 84.5738 16.256V12.576C84.5738 11.1787 84.3177 10.2347 83.8057 9.744C83.3044 9.24267 82.3658 8.992 80.9898 8.992H79.7738C78.3658 8.992 77.1817 9.17334 76.2217 9.536C75.2617 9.888 74.7818 10.4427 74.7818 11.2V17.632C74.7818 18.3787 75.2617 18.9333 76.2217 19.296C77.1817 19.6587 78.3658 19.84 79.7738 19.84Z" fill="#0F172A"/>
<path d="M98.6602 22.528C96.5376 22.528 94.9589 22.016 93.9242 20.992C92.9002 19.968 92.3883 18.4 92.3883 16.288V12.576C92.3883 10.432 92.9002 8.85333 93.9242 7.84C94.9589 6.816 96.5376 6.304 98.6602 6.304H101.284C103.418 6.304 104.996 6.816 106.02 7.84C107.044 8.864 107.556 10.4427 107.556 12.576V16.256C107.556 18.3787 107.044 19.9573 106.02 20.992C104.996 22.016 103.418 22.528 101.284 22.528H98.6602ZM95.0762 16.288C95.0762 17.664 95.3269 18.6027 95.8282 19.104C96.3296 19.5947 97.2736 19.84 98.6602 19.84H101.284C102.682 19.84 103.626 19.5893 104.116 19.088C104.618 18.5867 104.868 17.6427 104.868 16.256V12.576C104.868 11.1787 104.618 10.2347 104.116 9.744C103.626 9.24267 102.682 8.992 101.284 8.992H98.6602C97.7322 8.992 97.0069 9.09867 96.4843 9.312C95.9723 9.51467 95.6096 9.87733 95.3962 10.4C95.1829 10.912 95.0762 11.6373 95.0762 12.576V16.288Z" fill="#0F172A"/>
<path d="M118.941 22.528C116.819 22.528 115.24 22.016 114.205 20.992C113.181 19.968 112.67 18.4 112.67 16.288V12.576C112.67 10.432 113.181 8.85333 114.205 7.84C115.24 6.816 116.819 6.304 118.941 6.304H121.565C123.699 6.304 125.277 6.816 126.301 7.84C127.326 8.864 127.838 10.4427 127.838 12.576V16.256C127.838 18.3787 127.326 19.9573 126.301 20.992C125.277 22.016 123.699 22.528 121.565 22.528H118.941ZM115.357 16.288C115.357 17.664 115.608 18.6027 116.109 19.104C116.611 19.5947 117.555 19.84 118.941 19.84H121.565C122.963 19.84 123.907 19.5893 124.397 19.088C124.899 18.5867 125.149 17.6427 125.149 16.256V12.576C125.149 11.1787 124.899 10.2347 124.397 9.744C123.907 9.24267 122.963 8.992 121.565 8.992H118.941C118.013 8.992 117.288 9.09867 116.766 9.312C116.254 9.51467 115.891 9.87733 115.677 10.4C115.464 10.912 115.357 11.6373 115.357 12.576V16.288Z" fill="#0F172A"/>
</svg>
